<?xml version="1.0" encoding="UTF-8"?>
<svg xmlns="http://www.w3.org/2000/svg" xmlns:xlink="http://www.w3.org/1999/xlink" width="14pt" height="14pt" viewBox="0 0 14 14" version="1.1">
<g id="surface1">
<path style=" stroke:none;fill-rule:nonzero;fill:rgb(0%,0%,0%);fill-opacity:1;" d="M 8.136719 4.539062 L 7.574219 4.539062 C 7.46875 4.539062 7.382812 4.453125 7.382812 4.347656 C 7.382812 4.246094 7.46875 4.160156 7.574219 4.160156 L 8.136719 4.160156 C 8.238281 4.160156 8.324219 4.246094 8.324219 4.347656 C 8.324219 4.453125 8.238281 4.539062 8.136719 4.539062 Z M 8.136719 4.539062 "/>
<path style=" stroke:none;fill-rule:nonzero;fill:rgb(0%,0%,0%);fill-opacity:1;" d="M 13.242188 13.621094 L 0.757812 13.621094 C 0.546875 13.621094 0.378906 13.453125 0.378906 13.242188 L 0.378906 4.347656 C 0.378906 4.246094 0.464844 4.160156 0.566406 4.160156 L 4.375 4.160156 C 4.480469 4.160156 4.566406 4.246094 4.566406 4.347656 C 4.566406 4.453125 4.480469 4.539062 4.375 4.539062 L 0.757812 4.539062 L 0.757812 13.242188 L 13.242188 13.242188 L 13.242188 4.539062 L 9.460938 4.539062 C 9.355469 4.539062 9.269531 4.453125 9.269531 4.347656 C 9.269531 4.246094 9.355469 4.160156 9.460938 4.160156 L 13.433594 4.160156 C 13.535156 4.160156 13.621094 4.246094 13.621094 4.347656 L 13.621094 13.242188 C 13.621094 13.453125 13.453125 13.621094 13.242188 13.621094 Z M 13.242188 13.621094 "/>
<path style=" stroke:none;fill-rule:nonzero;fill:rgb(0%,0%,0%);fill-opacity:1;" d="M 6.25 4.539062 L 5.699219 4.539062 C 5.597656 4.539062 5.511719 4.453125 5.511719 4.347656 C 5.511719 4.246094 5.597656 4.160156 5.699219 4.160156 L 6.25 4.160156 C 6.351562 4.160156 6.4375 4.246094 6.4375 4.347656 C 6.4375 4.453125 6.351562 4.539062 6.25 4.539062 Z M 6.25 4.539062 "/>
<path style=" stroke:none;fill-rule:nonzero;fill:rgb(0%,0%,0%);fill-opacity:1;" d="M 8.136719 4.539062 L 7.574219 4.539062 C 7.46875 4.539062 7.382812 4.453125 7.382812 4.347656 C 7.382812 4.246094 7.46875 4.160156 7.574219 4.160156 L 8.136719 4.160156 C 8.238281 4.160156 8.324219 4.246094 8.324219 4.347656 C 8.324219 4.453125 8.238281 4.539062 8.136719 4.539062 Z M 8.136719 4.539062 "/>
<path style=" stroke:none;fill-rule:nonzero;fill:rgb(0%,0%,0%);fill-opacity:1;" d="M 4.375 4.539062 L 0.566406 4.539062 C 0.464844 4.539062 0.378906 4.453125 0.378906 4.347656 L 0.378906 1.890625 C 0.378906 1.679688 0.546875 1.511719 0.757812 1.511719 L 2.742188 1.511719 C 2.847656 1.511719 2.933594 1.597656 2.933594 1.699219 C 2.933594 1.804688 2.847656 1.890625 2.742188 1.890625 L 0.757812 1.890625 L 0.757812 4.160156 L 4.375 4.160156 C 4.480469 4.160156 4.566406 4.246094 4.566406 4.347656 C 4.566406 4.453125 4.480469 4.539062 4.375 4.539062 Z M 4.375 4.539062 "/>
<path style=" stroke:none;fill-rule:nonzero;fill:rgb(0%,0%,0%);fill-opacity:1;" d="M 6.25 4.539062 L 5.699219 4.539062 C 5.597656 4.539062 5.511719 4.453125 5.511719 4.347656 C 5.511719 4.246094 5.597656 4.160156 5.699219 4.160156 L 6.25 4.160156 C 6.351562 4.160156 6.4375 4.246094 6.4375 4.347656 C 6.4375 4.453125 6.351562 4.539062 6.25 4.539062 Z M 6.25 4.539062 "/>
<path style=" stroke:none;fill-rule:nonzero;fill:rgb(0%,0%,0%);fill-opacity:1;" d="M 13.433594 4.539062 L 9.460938 4.539062 C 9.355469 4.539062 9.269531 4.453125 9.269531 4.347656 C 9.269531 4.246094 9.355469 4.160156 9.460938 4.160156 L 13.242188 4.160156 L 13.242188 1.890625 L 11.257812 1.890625 C 11.152344 1.890625 11.066406 1.804688 11.066406 1.699219 C 11.066406 1.597656 11.152344 1.511719 11.257812 1.511719 L 13.242188 1.511719 C 13.453125 1.511719 13.621094 1.679688 13.621094 1.890625 L 13.621094 4.347656 C 13.621094 4.453125 13.535156 4.539062 13.433594 4.539062 Z M 13.433594 4.539062 "/>
<path style=" stroke:none;fill-rule:nonzero;fill:rgb(0%,0%,0%);fill-opacity:1;" d="M 10.027344 1.890625 L 3.972656 1.890625 C 3.867188 1.890625 3.785156 1.804688 3.785156 1.699219 C 3.785156 1.597656 3.867188 1.511719 3.972656 1.511719 L 10.027344 1.511719 C 10.132812 1.511719 10.214844 1.597656 10.214844 1.699219 C 10.214844 1.804688 10.132812 1.890625 10.027344 1.890625 Z M 10.027344 1.890625 "/>
<path style=" stroke:none;fill-rule:nonzero;fill:rgb(0%,0%,0%);fill-opacity:1;" d="M 11.117188 3.023438 L 10.164062 3.023438 C 9.984375 3.023438 9.839844 2.878906 9.835938 2.699219 L 9.835938 0.703125 C 9.839844 0.523438 9.984375 0.375 10.164062 0.375 L 11.117188 0.375 C 11.300781 0.375 11.445312 0.523438 11.445312 0.703125 L 11.445312 2.699219 C 11.445312 2.878906 11.300781 3.023438 11.117188 3.023438 Z M 10.214844 2.644531 L 11.066406 2.644531 L 11.066406 0.753906 L 10.214844 0.753906 Z M 10.214844 2.644531 "/>
<path style=" stroke:none;fill-rule:nonzero;fill:rgb(0%,0%,0%);fill-opacity:1;" d="M 3.835938 3.023438 L 2.882812 3.023438 C 2.699219 3.023438 2.554688 2.878906 2.554688 2.699219 L 2.554688 0.703125 C 2.554688 0.523438 2.699219 0.375 2.882812 0.375 L 3.835938 0.375 C 4.015625 0.375 4.160156 0.523438 4.164062 0.703125 L 4.164062 2.699219 C 4.160156 2.878906 4.015625 3.023438 3.835938 3.023438 Z M 2.933594 2.644531 L 3.785156 2.644531 L 3.785156 0.753906 L 2.933594 0.753906 Z M 2.933594 2.644531 "/>
<path style=" stroke:none;fill-rule:nonzero;fill:rgb(0%,0%,0%);fill-opacity:1;" d="M 11.664062 7.25 L 10.660156 7.25 C 10.484375 7.25 10.34375 7.109375 10.34375 6.933594 L 10.34375 5.929688 C 10.34375 5.753906 10.484375 5.613281 10.660156 5.613281 L 11.664062 5.613281 C 11.839844 5.613281 11.980469 5.753906 11.980469 5.929688 L 11.980469 6.933594 C 11.980469 7.109375 11.839844 7.25 11.664062 7.25 Z M 10.722656 6.871094 L 11.605469 6.871094 L 11.605469 5.988281 L 10.722656 5.988281 Z M 10.722656 6.871094 "/>
<path style=" stroke:none;fill-rule:nonzero;fill:rgb(0%,0%,0%);fill-opacity:1;" d="M 8.890625 7.25 L 7.886719 7.25 C 7.710938 7.25 7.566406 7.109375 7.566406 6.933594 L 7.566406 5.929688 C 7.566406 5.753906 7.710938 5.613281 7.886719 5.613281 L 8.890625 5.613281 C 9.066406 5.613281 9.207031 5.753906 9.207031 5.929688 L 9.207031 6.933594 C 9.207031 7.109375 9.066406 7.25 8.890625 7.25 Z M 7.945312 6.871094 L 8.828125 6.871094 L 8.828125 5.988281 L 7.945312 5.988281 Z M 7.945312 6.871094 "/>
<path style=" stroke:none;fill-rule:nonzero;fill:rgb(0%,0%,0%);fill-opacity:1;" d="M 6.113281 7.25 L 5.109375 7.25 C 4.933594 7.25 4.792969 7.109375 4.792969 6.933594 L 4.792969 5.929688 C 4.792969 5.753906 4.933594 5.613281 5.109375 5.613281 L 6.113281 5.613281 C 6.289062 5.613281 6.433594 5.753906 6.433594 5.929688 L 6.433594 6.933594 C 6.433594 7.109375 6.289062 7.25 6.113281 7.25 Z M 5.171875 6.871094 L 6.054688 6.871094 L 6.054688 5.988281 L 5.171875 5.988281 Z M 5.171875 6.871094 "/>
<path style=" stroke:none;fill-rule:nonzero;fill:rgb(0%,0%,0%);fill-opacity:1;" d="M 11.664062 9.710938 L 10.660156 9.710938 C 10.484375 9.710938 10.34375 9.566406 10.34375 9.394531 L 10.34375 8.390625 C 10.34375 8.214844 10.484375 8.070312 10.660156 8.070312 L 11.664062 8.070312 C 11.839844 8.070312 11.980469 8.214844 11.980469 8.390625 L 11.980469 9.394531 C 11.980469 9.566406 11.839844 9.710938 11.664062 9.710938 Z M 10.722656 9.332031 L 11.605469 9.332031 L 11.605469 8.449219 L 10.722656 8.449219 Z M 10.722656 9.332031 "/>
<path style=" stroke:none;fill-rule:nonzero;fill:rgb(0%,0%,0%);fill-opacity:1;" d="M 8.890625 9.710938 L 7.886719 9.710938 C 7.710938 9.710938 7.566406 9.566406 7.566406 9.394531 L 7.566406 8.390625 C 7.566406 8.214844 7.710938 8.070312 7.886719 8.070312 L 8.890625 8.070312 C 9.066406 8.070312 9.207031 8.214844 9.207031 8.390625 L 9.207031 9.394531 C 9.207031 9.566406 9.066406 9.710938 8.890625 9.710938 Z M 7.945312 9.332031 L 8.828125 9.332031 L 8.828125 8.449219 L 7.945312 8.449219 Z M 7.945312 9.332031 "/>
<path style=" stroke:none;fill-rule:nonzero;fill:rgb(0%,0%,0%);fill-opacity:1;" d="M 6.113281 9.710938 L 5.109375 9.710938 C 4.933594 9.710938 4.792969 9.566406 4.792969 9.394531 L 4.792969 8.390625 C 4.792969 8.214844 4.933594 8.070312 5.109375 8.070312 L 6.113281 8.070312 C 6.289062 8.070312 6.433594 8.214844 6.433594 8.390625 L 6.433594 9.394531 C 6.433594 9.566406 6.289062 9.710938 6.113281 9.710938 Z M 5.171875 9.332031 L 6.054688 9.332031 L 6.054688 8.449219 L 5.171875 8.449219 Z M 5.171875 9.332031 "/>
<path style=" stroke:none;fill-rule:nonzero;fill:rgb(0%,0%,0%);fill-opacity:1;" d="M 3.339844 9.710938 L 2.335938 9.710938 C 2.160156 9.710938 2.019531 9.566406 2.019531 9.394531 L 2.019531 8.390625 C 2.019531 8.214844 2.160156 8.070312 2.335938 8.070312 L 3.339844 8.070312 C 3.515625 8.070312 3.65625 8.214844 3.65625 8.390625 L 3.65625 9.394531 C 3.65625 9.566406 3.515625 9.710938 3.339844 9.710938 Z M 2.394531 9.332031 L 3.277344 9.332031 L 3.277344 8.449219 L 2.394531 8.449219 Z M 2.394531 9.332031 "/>
<path style=" stroke:none;fill-rule:nonzero;fill:rgb(0%,0%,0%);fill-opacity:1;" d="M 8.890625 12.171875 L 7.886719 12.171875 C 7.710938 12.167969 7.566406 12.027344 7.566406 11.851562 L 7.566406 10.847656 C 7.566406 10.671875 7.710938 10.53125 7.886719 10.53125 L 8.890625 10.53125 C 9.066406 10.53125 9.207031 10.671875 9.207031 10.847656 L 9.207031 11.851562 C 9.207031 12.027344 9.066406 12.171875 8.890625 12.171875 Z M 7.945312 11.792969 L 8.828125 11.792969 L 8.828125 10.910156 L 7.945312 10.910156 Z M 7.945312 11.792969 "/>
<path style=" stroke:none;fill-rule:nonzero;fill:rgb(0%,0%,0%);fill-opacity:1;" d="M 6.113281 12.171875 L 5.109375 12.171875 C 4.933594 12.171875 4.792969 12.027344 4.792969 11.851562 L 4.792969 10.847656 C 4.792969 10.671875 4.933594 10.53125 5.109375 10.53125 L 6.113281 10.53125 C 6.289062 10.53125 6.433594 10.671875 6.433594 10.847656 L 6.433594 11.851562 C 6.433594 12.027344 6.289062 12.167969 6.113281 12.171875 Z M 5.171875 11.792969 L 6.054688 11.792969 L 6.054688 10.910156 L 5.171875 10.910156 Z M 5.171875 11.792969 "/>
<path style=" stroke:none;fill-rule:nonzero;fill:rgb(0%,0%,0%);fill-opacity:1;" d="M 3.339844 12.171875 L 2.335938 12.171875 C 2.160156 12.167969 2.019531 12.027344 2.019531 11.851562 L 2.019531 10.847656 C 2.019531 10.671875 2.160156 10.53125 2.335938 10.53125 L 3.339844 10.53125 C 3.515625 10.53125 3.65625 10.671875 3.65625 10.847656 L 3.65625 11.851562 C 3.65625 12.027344 3.515625 12.167969 3.339844 12.171875 Z M 2.394531 11.792969 L 3.277344 11.792969 L 3.277344 10.910156 L 2.394531 10.910156 Z M 2.394531 11.792969 "/>
</g>
</svg>
